M48
; DRILL file {KiCad 8.0.2} date 2024-05-10T09:20:56-0400
; FORMAT={-:-/ absolute / inch / decimal}
; #@! TF.CreationDate,2024-05-10T09:20:56-04:00
; #@! TF.GenerationSoftware,Kicad,Pcbnew,8.0.2
; #@! TF.FileFunction,Plated,1,2,PTH
FMAT,2
INCH
; #@! TA.AperFunction,Plated,PTH,ComponentDrill
T1C0.0276
; #@! TA.AperFunction,Plated,PTH,ComponentDrill
T2C0.0390
; #@! TA.AperFunction,Plated,PTH,ComponentDrill
T3C0.0394
; #@! TA.AperFunction,Plated,PTH,ComponentDrill
T4C0.0400
%
G90
G05
T1
X5.126Y-4.1339
X5.126Y-4.3339
X5.2244Y-4.1339
X5.2244Y-4.3339
X5.3228Y-4.1339
X5.3228Y-4.3339
X5.4213Y-4.1339
X5.4213Y-4.3339
X6.3228Y-4.5126
X6.3228Y-4.7126
X6.4252Y-4.5126
X6.4252Y-4.7126
X6.5276Y-4.5126
X6.5276Y-4.7126
X6.626Y-4.5126
X6.626Y-4.7126
X7.1102Y-4.5142
X7.1102Y-4.7142
X7.2126Y-4.5142
X7.2126Y-4.7142
X7.374Y-4.5157
X7.374Y-4.7157
X7.4724Y-4.5157
X7.4724Y-4.7157
X8.7795Y-4.152
X8.7795Y-4.352
X8.878Y-4.152
X8.878Y-4.352
X8.9764Y-4.152
X8.9764Y-4.352
X9.0787Y-4.152
X9.0787Y-4.352
X9.7638Y-3.652
X9.7638Y-3.852
T2
X9.9705Y-3.6516
X9.9705Y-3.8287
X10.2264Y-3.6516
X10.2264Y-3.8287
T3
X5.1238Y-3.8693
X5.1276Y-5.6693
X5.2238Y-3.8693
X5.2276Y-5.6693
X5.3238Y-3.8693
X5.3276Y-5.6693
X5.4238Y-3.8693
X5.4276Y-5.6693
X5.5238Y-3.8693
X5.5276Y-5.6693
X5.6238Y-3.8693
X5.6276Y-5.6693
X5.7238Y-3.8693
X5.7276Y-5.6693
X5.8238Y-3.8693
X5.8276Y-5.6693
X5.9238Y-3.8693
X5.9276Y-5.6693
X6.0238Y-3.8693
X6.0276Y-5.6693
X6.1238Y-3.8693
X6.1276Y-5.6693
X6.2238Y-3.8693
X6.2276Y-5.6693
X6.3238Y-3.8693
X6.3276Y-5.6693
X6.4238Y-3.8693
X6.4276Y-5.6693
X6.5238Y-3.8693
X6.5276Y-5.6693
X6.6238Y-3.8693
X6.6276Y-5.6693
X7.5748Y-3.8693
X7.5785Y-5.6693
X7.6748Y-3.8693
X7.6785Y-5.6693
X7.7748Y-3.8693
X7.7785Y-5.6693
X7.8748Y-3.8693
X7.8785Y-5.6693
X7.9748Y-3.8693
X7.9785Y-5.6693
X8.0748Y-3.8693
X8.0785Y-5.6693
X8.1748Y-3.8693
X8.1785Y-5.6693
X8.2748Y-3.8693
X8.2785Y-5.6693
X8.3748Y-3.8693
X8.3785Y-5.6693
X8.4748Y-3.8693
X8.4785Y-5.6693
X8.5748Y-3.8693
X8.5785Y-5.6693
X8.6748Y-3.8693
X8.6785Y-5.6693
X8.7748Y-3.8693
X8.7785Y-5.6693
X8.8748Y-3.8693
X8.8785Y-5.6693
X8.9748Y-3.8693
X8.9785Y-5.6693
X9.0748Y-3.8693
X9.0785Y-5.6693
T4
X6.7117Y-4.1969
X6.8117Y-4.1969
X6.9117Y-4.1969
X7.0117Y-4.1969
X7.072Y-6.0965
X7.1117Y-4.1969
X7.172Y-6.0965
X7.2117Y-4.1969
X7.272Y-6.0965
X7.3717Y-4.1969
X7.372Y-6.0965
X7.4717Y-4.1969
X7.5717Y-4.1969
X7.6717Y-4.1969
X7.7717Y-4.1969
X7.8717Y-4.1969
X8.172Y-6.0965
X8.272Y-6.0965
X8.472Y-6.0965
X8.572Y-6.0965
X8.672Y-6.0965
X8.772Y-6.0965
X8.872Y-6.0965
X8.972Y-6.0965
X9.072Y-6.0965
X9.172Y-6.0965
X9.2717Y-4.1969
X9.2717Y-4.2969
X9.2717Y-4.3969
X9.2717Y-4.4969
X9.2717Y-4.5969
X9.2717Y-4.6969
X9.2717Y-4.7969
X9.2717Y-4.8969
X9.2717Y-4.9969
X9.2717Y-5.0969
X9.2717Y-5.1969
X9.2717Y-5.2969
X9.2717Y-5.3969
X9.2717Y-5.4969
X9.2717Y-5.5969
X9.3717Y-4.1969
X9.3717Y-4.2969
X9.3717Y-4.3969
X9.3717Y-4.4969
X9.3717Y-4.5969
X9.3717Y-4.6969
X9.3717Y-4.7969
X9.3717Y-4.8969
X9.3717Y-4.9969
X9.3717Y-5.0969
X9.3717Y-5.1969
X9.3717Y-5.2969
X9.3717Y-5.3969
X9.3717Y-5.4969
X9.3717Y-5.5969
M30
