%TF.GenerationSoftware,KiCad,Pcbnew,8.0.2*%
%TF.CreationDate,2024-05-10T09:20:42-04:00*%
%TF.ProjectId,Anastasiya Volgina - PCB Design,416e6173-7461-4736-9979-6120566f6c67,rev?*%
%TF.SameCoordinates,Original*%
%TF.FileFunction,Copper,L1,Top*%
%TF.FilePolarity,Positive*%
%FSLAX46Y46*%
G04 Gerber Fmt 4.6, Leading zero omitted, Abs format (unit mm)*
G04 Created by KiCad (PCBNEW 8.0.2) date 2024-05-10 09:20:42*
%MOMM*%
%LPD*%
G01*
G04 APERTURE LIST*
G04 Aperture macros list*
%AMRoundRect*
0 Rectangle with rounded corners*
0 $1 Rounding radius*
0 $2 $3 $4 $5 $6 $7 $8 $9 X,Y pos of 4 corners*
0 Add a 4 corners polygon primitive as box body*
4,1,4,$2,$3,$4,$5,$6,$7,$8,$9,$2,$3,0*
0 Add four circle primitives for the rounded corners*
1,1,$1+$1,$2,$3*
1,1,$1+$1,$4,$5*
1,1,$1+$1,$6,$7*
1,1,$1+$1,$8,$9*
0 Add four rect primitives between the rounded corners*
20,1,$1+$1,$2,$3,$4,$5,0*
20,1,$1+$1,$4,$5,$6,$7,0*
20,1,$1+$1,$6,$7,$8,$9,0*
20,1,$1+$1,$8,$9,$2,$3,0*%
G04 Aperture macros list end*
%TA.AperFunction,ComponentPad*%
%ADD10C,1.400000*%
%TD*%
%TA.AperFunction,ComponentPad*%
%ADD11O,1.400000X1.400000*%
%TD*%
%TA.AperFunction,SMDPad,CuDef*%
%ADD12R,2.200000X2.800000*%
%TD*%
%TA.AperFunction,SMDPad,CuDef*%
%ADD13R,2.800000X2.800000*%
%TD*%
%TA.AperFunction,ComponentPad*%
%ADD14RoundRect,0.250000X-0.500000X-0.500000X0.500000X-0.500000X0.500000X0.500000X-0.500000X0.500000X0*%
%TD*%
%TA.AperFunction,ComponentPad*%
%ADD15C,1.500000*%
%TD*%
%TA.AperFunction,ComponentPad*%
%ADD16R,1.498000X1.498000*%
%TD*%
%TA.AperFunction,ComponentPad*%
%ADD17C,1.498000*%
%TD*%
%TA.AperFunction,ComponentPad*%
%ADD18O,1.727200X1.727200*%
%TD*%
%TA.AperFunction,ComponentPad*%
%ADD19R,1.727200X1.727200*%
%TD*%
%TA.AperFunction,Conductor*%
%ADD20C,1.000000*%
%TD*%
G04 APERTURE END LIST*
D10*
%TO.P,R6,1*%
%TO.N,Net-(D1-R6)*%
X225500000Y-105460000D03*
D11*
%TO.P,R6,2*%
%TO.N,/D3*%
X225500000Y-110540000D03*
%TD*%
D10*
%TO.P,R17,1*%
%TO.N,Net-(R17-Pad1)*%
X248000000Y-92760000D03*
D11*
%TO.P,R17,2*%
%TO.N,/D39*%
X248000000Y-97840000D03*
%TD*%
D10*
%TO.P,R15,1*%
%TO.N,Net-(D2-R7)*%
X165800000Y-114620000D03*
D11*
%TO.P,R15,2*%
%TO.N,/D44*%
X165800000Y-119700000D03*
%TD*%
D12*
%TO.P,J1,R*%
%TO.N,/A6*%
X256100000Y-162200000D03*
%TO.P,J1,S*%
%TO.N,/GND*%
X258100000Y-154800000D03*
D13*
%TO.P,J1,T*%
%TO.N,/A7*%
X248700000Y-154800000D03*
%TD*%
D10*
%TO.P,R9,1*%
%TO.N,Net-(D2-R1)*%
X130200000Y-105000000D03*
D11*
%TO.P,R9,2*%
%TO.N,/D10*%
X130200000Y-110080000D03*
%TD*%
D10*
%TO.P,R11,1*%
%TO.N,Net-(D2-R3)*%
X135200000Y-105000000D03*
D11*
%TO.P,R11,2*%
%TO.N,/D12*%
X135200000Y-110080000D03*
%TD*%
D10*
%TO.P,R8,1*%
%TO.N,Net-(D1-R8)*%
X230600000Y-105460000D03*
D11*
%TO.P,R8,2*%
%TO.N,/D5*%
X230600000Y-110540000D03*
%TD*%
D10*
%TO.P,R1,1*%
%TO.N,Net-(D1-R1)*%
X180600000Y-119740000D03*
D11*
%TO.P,R1,2*%
%TO.N,/D9*%
X180600000Y-114660000D03*
%TD*%
D10*
%TO.P,R3,1*%
%TO.N,Net-(D1-R3)*%
X187300000Y-119780000D03*
D11*
%TO.P,R3,2*%
%TO.N,/D7*%
X187300000Y-114700000D03*
%TD*%
D14*
%TO.P,D2,1,CB1*%
%TO.N,/A15*%
X168340000Y-144000000D03*
D15*
%TO.P,D2,2,CB2*%
%TO.N,/A14*%
X165800000Y-144000000D03*
%TO.P,D2,3,CB3*%
%TO.N,/A13*%
X163260000Y-144000000D03*
%TO.P,D2,4,CB4*%
%TO.N,/A12*%
X160720000Y-144000000D03*
%TO.P,D2,5,CB5*%
%TO.N,/A11*%
X158180000Y-144000000D03*
%TO.P,D2,6,CB6*%
%TO.N,/A10*%
X155640000Y-144000000D03*
%TO.P,D2,7,CB7*%
%TO.N,/A9*%
X153100000Y-144000000D03*
%TO.P,D2,8,CB8*%
%TO.N,/A8*%
X150560000Y-144000000D03*
%TO.P,D2,9,CR1*%
%TO.N,/D37*%
X148020000Y-144000000D03*
%TO.P,D2,10,CR2*%
%TO.N,/D36*%
X145480000Y-144000000D03*
%TO.P,D2,11,CR3*%
%TO.N,/D35*%
X142940000Y-144000000D03*
%TO.P,D2,12,CR4*%
%TO.N,/D34*%
X140400000Y-144000000D03*
%TO.P,D2,13,CR5*%
%TO.N,/D33*%
X137860000Y-144000000D03*
%TO.P,D2,14,CR6*%
%TO.N,/D32*%
X135320000Y-144000000D03*
%TO.P,D2,15,CR7*%
%TO.N,/D31*%
X132780000Y-144000000D03*
%TO.P,D2,16,CR8*%
%TO.N,/D30*%
X130240000Y-144000000D03*
%TO.P,D2,17,R1*%
%TO.N,Net-(D2-R1)*%
X130145037Y-98279543D03*
%TO.P,D2,18,R2*%
%TO.N,Net-(D2-R2)*%
X132685037Y-98279543D03*
%TO.P,D2,19,R3*%
%TO.N,Net-(D2-R3)*%
X135225037Y-98279543D03*
%TO.P,D2,20,R4*%
%TO.N,Net-(D2-R4)*%
X137765037Y-98279543D03*
%TO.P,D2,21,CG8*%
%TO.N,/D28*%
X140305037Y-98279543D03*
%TO.P,D2,22,CG7*%
%TO.N,/D26*%
X142845037Y-98279543D03*
%TO.P,D2,23,CG6*%
%TO.N,/D24*%
X145385037Y-98279543D03*
%TO.P,D2,24,CG5*%
%TO.N,/D22*%
X147925037Y-98279543D03*
%TO.P,D2,25,CG4*%
%TO.N,/D23*%
X150465037Y-98279543D03*
%TO.P,D2,26,CG3*%
%TO.N,/D25*%
X153005037Y-98279543D03*
%TO.P,D2,27,CG2*%
%TO.N,/D27*%
X155545037Y-98279543D03*
%TO.P,D2,28,CG1*%
%TO.N,/D29*%
X158085037Y-98279543D03*
%TO.P,D2,29,R5*%
%TO.N,Net-(D2-R5)*%
X160625037Y-98279543D03*
%TO.P,D2,30,R6*%
%TO.N,Net-(D2-R6)*%
X163165037Y-98279543D03*
%TO.P,D2,31,R7*%
%TO.N,Net-(D2-R7)*%
X165705037Y-98279543D03*
%TO.P,D2,32,R8*%
%TO.N,Net-(D2-R8)*%
X168245037Y-98279543D03*
%TD*%
D10*
%TO.P,R12,1*%
%TO.N,Net-(D2-R4)*%
X137700000Y-105000000D03*
D11*
%TO.P,R12,2*%
%TO.N,/D13*%
X137700000Y-110080000D03*
%TD*%
D10*
%TO.P,R13,1*%
%TO.N,Net-(D2-R5)*%
X160600000Y-114620000D03*
D11*
%TO.P,R13,2*%
%TO.N,/D46*%
X160600000Y-119700000D03*
%TD*%
D10*
%TO.P,R2,1*%
%TO.N,Net-(D1-R2)*%
X183200000Y-119740000D03*
D11*
%TO.P,R2,2*%
%TO.N,/D8*%
X183200000Y-114660000D03*
%TD*%
D10*
%TO.P,R5,1*%
%TO.N,Net-(D1-R5)*%
X223000000Y-105460000D03*
D11*
%TO.P,R5,2*%
%TO.N,/D2*%
X223000000Y-110540000D03*
%TD*%
D10*
%TO.P,R14,1*%
%TO.N,Net-(D2-R6)*%
X163200000Y-114620000D03*
D11*
%TO.P,R14,2*%
%TO.N,/D45*%
X163200000Y-119700000D03*
%TD*%
D10*
%TO.P,R4,1*%
%TO.N,Net-(D1-R4)*%
X189800000Y-119780000D03*
D11*
%TO.P,R4,2*%
%TO.N,/D6*%
X189800000Y-114700000D03*
%TD*%
D16*
%TO.P,SW1,1,1*%
%TO.N,Net-(R17-Pad1)*%
X253250000Y-92750000D03*
D17*
%TO.P,SW1,2,2*%
%TO.N,/GND*%
X259750000Y-92750000D03*
%TO.P,SW1,3*%
%TO.N,N/C*%
X253250000Y-97250000D03*
%TO.P,SW1,4*%
X259750000Y-97250000D03*
%TD*%
D10*
%TO.P,R10,1*%
%TO.N,Net-(D2-R2)*%
X132700000Y-105000000D03*
D11*
%TO.P,R10,2*%
%TO.N,/D11*%
X132700000Y-110080000D03*
%TD*%
D10*
%TO.P,R16,1*%
%TO.N,Net-(D2-R8)*%
X168300000Y-114620000D03*
D11*
%TO.P,R16,2*%
%TO.N,/D47*%
X168300000Y-119700000D03*
%TD*%
D10*
%TO.P,R7,1*%
%TO.N,Net-(D1-R7)*%
X228000000Y-105460000D03*
D11*
%TO.P,R7,2*%
%TO.N,/D4*%
X228000000Y-110540000D03*
%TD*%
D14*
%TO.P,D1,1,CB1*%
%TO.N,/A15*%
X230594963Y-144000000D03*
D15*
%TO.P,D1,2,CB2*%
%TO.N,/A14*%
X228054963Y-144000000D03*
%TO.P,D1,3,CB3*%
%TO.N,/A13*%
X225514963Y-144000000D03*
%TO.P,D1,4,CB4*%
%TO.N,/A12*%
X222974963Y-144000000D03*
%TO.P,D1,5,CB5*%
%TO.N,/A11*%
X220434963Y-144000000D03*
%TO.P,D1,6,CB6*%
%TO.N,/A10*%
X217894963Y-144000000D03*
%TO.P,D1,7,CB7*%
%TO.N,/A9*%
X215354963Y-144000000D03*
%TO.P,D1,8,CB8*%
%TO.N,/A8*%
X212814963Y-144000000D03*
%TO.P,D1,9,CR1*%
%TO.N,/D37*%
X210274963Y-144000000D03*
%TO.P,D1,10,CR2*%
%TO.N,/D36*%
X207734963Y-144000000D03*
%TO.P,D1,11,CR3*%
%TO.N,/D35*%
X205194963Y-144000000D03*
%TO.P,D1,12,CR4*%
%TO.N,/D34*%
X202654963Y-144000000D03*
%TO.P,D1,13,CR5*%
%TO.N,/D33*%
X200114963Y-144000000D03*
%TO.P,D1,14,CR6*%
%TO.N,/D32*%
X197574963Y-144000000D03*
%TO.P,D1,15,CR7*%
%TO.N,/D31*%
X195034963Y-144000000D03*
%TO.P,D1,16,CR8*%
%TO.N,/D30*%
X192494963Y-144000000D03*
%TO.P,D1,17,R1*%
%TO.N,Net-(D1-R1)*%
X192400000Y-98279543D03*
%TO.P,D1,18,R2*%
%TO.N,Net-(D1-R2)*%
X194940000Y-98279543D03*
%TO.P,D1,19,R3*%
%TO.N,Net-(D1-R3)*%
X197480000Y-98279543D03*
%TO.P,D1,20,R4*%
%TO.N,Net-(D1-R4)*%
X200020000Y-98279543D03*
%TO.P,D1,21,CG8*%
%TO.N,/D28*%
X202560000Y-98279543D03*
%TO.P,D1,22,CG7*%
%TO.N,/D26*%
X205100000Y-98279543D03*
%TO.P,D1,23,CG6*%
%TO.N,/D24*%
X207640000Y-98279543D03*
%TO.P,D1,24,CG5*%
%TO.N,/D22*%
X210180000Y-98279543D03*
%TO.P,D1,25,CG4*%
%TO.N,/D23*%
X212720000Y-98279543D03*
%TO.P,D1,26,CG3*%
%TO.N,/D25*%
X215260000Y-98279543D03*
%TO.P,D1,27,CG2*%
%TO.N,/D27*%
X217800000Y-98279543D03*
%TO.P,D1,28,CG1*%
%TO.N,/D29*%
X220340000Y-98279543D03*
%TO.P,D1,29,R5*%
%TO.N,Net-(D1-R5)*%
X222880000Y-98279543D03*
%TO.P,D1,30,R6*%
%TO.N,Net-(D1-R6)*%
X225420000Y-98279543D03*
%TO.P,D1,31,R7*%
%TO.N,Net-(D1-R7)*%
X227960000Y-98279543D03*
%TO.P,D1,32,R8*%
%TO.N,Net-(D1-R8)*%
X230500000Y-98279543D03*
%TD*%
D18*
%TO.P,A1,5V1,5V*%
%TO.N,unconnected-(A1-5V-Pad5V1)*%
X179630000Y-154850000D03*
%TO.P,A1,5V3,5V*%
%TO.N,unconnected-(A1-5V-Pad5V3)*%
X235500000Y-106600000D03*
%TO.P,A1,5V4,5V*%
%TO.N,unconnected-(A1-5V-Pad5V4)*%
X238040000Y-106600000D03*
%TO.P,A1,A6,A6*%
%TO.N,/A6*%
X207570000Y-154850000D03*
%TO.P,A1,A7,A7*%
%TO.N,/A7*%
X210110000Y-154850000D03*
%TO.P,A1,A8,PK0*%
%TO.N,/A8*%
X215190000Y-154850000D03*
%TO.P,A1,A9,PK1*%
%TO.N,/A9*%
X217730000Y-154850000D03*
%TO.P,A1,A10,PK2*%
%TO.N,/A10*%
X220270000Y-154850000D03*
%TO.P,A1,A11,PK3*%
%TO.N,/A11*%
X222810000Y-154850000D03*
%TO.P,A1,A12,PK4*%
%TO.N,/A12*%
X225350000Y-154850000D03*
%TO.P,A1,A13,PK5*%
%TO.N,/A13*%
X227890000Y-154850000D03*
%TO.P,A1,A14,PK6*%
%TO.N,/A14*%
X230430000Y-154850000D03*
%TO.P,A1,A15,PK7*%
%TO.N,/A15*%
X232970000Y-154850000D03*
%TO.P,A1,D2,D2_INT0*%
%TO.N,/D2*%
X199940000Y-106600000D03*
%TO.P,A1,D3,D3_INT1*%
%TO.N,/D3*%
X197400000Y-106600000D03*
%TO.P,A1,D4,D4*%
%TO.N,/D4*%
X194860000Y-106600000D03*
%TO.P,A1,D5,D5*%
%TO.N,/D5*%
X192320000Y-106600000D03*
%TO.P,A1,D6,D6*%
%TO.N,/D6*%
X189780000Y-106600000D03*
%TO.P,A1,D7,D7*%
%TO.N,/D7*%
X187240000Y-106600000D03*
%TO.P,A1,D8,D8*%
%TO.N,/D8*%
X183176000Y-106600000D03*
%TO.P,A1,D9,D9*%
%TO.N,/D9*%
X180636000Y-106600000D03*
%TO.P,A1,D10,D10*%
%TO.N,/D10*%
X178096000Y-106600000D03*
%TO.P,A1,D11,D11*%
%TO.N,/D11*%
X175556000Y-106600000D03*
%TO.P,A1,D12,D12*%
%TO.N,/D12*%
X173016000Y-106600000D03*
%TO.P,A1,D13,D13*%
%TO.N,/D13*%
X170476000Y-106600000D03*
%TO.P,A1,D22,PA0*%
%TO.N,/D22*%
X235500000Y-109140000D03*
%TO.P,A1,D23,PA1*%
%TO.N,/D23*%
X238040000Y-109140000D03*
%TO.P,A1,D24,PA2*%
%TO.N,/D24*%
X235500000Y-111680000D03*
%TO.P,A1,D25,PA3*%
%TO.N,/D25*%
X238040000Y-111680000D03*
%TO.P,A1,D26,PA4*%
%TO.N,/D26*%
X235500000Y-114220000D03*
%TO.P,A1,D27,PA5*%
%TO.N,/D27*%
X238040000Y-114220000D03*
%TO.P,A1,D28,PA6*%
%TO.N,/D28*%
X235500000Y-116760000D03*
%TO.P,A1,D29,PA7*%
%TO.N,/D29*%
X238040000Y-116760000D03*
%TO.P,A1,D30,PC7*%
%TO.N,/D30*%
X235500000Y-119300000D03*
%TO.P,A1,D31,PC6*%
%TO.N,/D31*%
X238040000Y-119300000D03*
%TO.P,A1,D32,PC5*%
%TO.N,/D32*%
X235500000Y-121840000D03*
%TO.P,A1,D33,PC4*%
%TO.N,/D33*%
X238040000Y-121840000D03*
%TO.P,A1,D34,PC3*%
%TO.N,/D34*%
X235500000Y-124380000D03*
%TO.P,A1,D35,PC2*%
%TO.N,/D35*%
X238040000Y-124380000D03*
%TO.P,A1,D36,PC1*%
%TO.N,/D36*%
X235500000Y-126920000D03*
%TO.P,A1,D37,PC0*%
%TO.N,/D37*%
X238040000Y-126920000D03*
%TO.P,A1,D38,D38*%
%TO.N,unconnected-(A1-PadD38)*%
X235500000Y-129460000D03*
%TO.P,A1,D39,D39*%
%TO.N,/D39*%
X238040000Y-129460000D03*
%TO.P,A1,D40,D40*%
%TO.N,unconnected-(A1-PadD40)*%
X235500000Y-132000000D03*
%TO.P,A1,D41,D41*%
%TO.N,unconnected-(A1-PadD41)*%
X238040000Y-132000000D03*
%TO.P,A1,D42,D42*%
%TO.N,unconnected-(A1-PadD42)*%
X235500000Y-134540000D03*
%TO.P,A1,D43,D43*%
%TO.N,unconnected-(A1-PadD43)*%
X238040000Y-134540000D03*
%TO.P,A1,D44,D44*%
%TO.N,/D44*%
X235500000Y-137080000D03*
%TO.P,A1,D45,D45*%
%TO.N,/D45*%
X238040000Y-137080000D03*
%TO.P,A1,D46,D46*%
%TO.N,/D46*%
X235500000Y-139620000D03*
%TO.P,A1,D47,D47*%
%TO.N,/D47*%
X238040000Y-139620000D03*
%TO.P,A1,D48,D48*%
%TO.N,unconnected-(A1-PadD48)*%
X235500000Y-142160000D03*
%TO.P,A1,D49,D49*%
%TO.N,unconnected-(A1-PadD49)*%
X238040000Y-142160000D03*
D19*
%TO.P,A1,GND2,GND*%
%TO.N,/GND*%
X182170000Y-154850000D03*
%TO.P,A1,GND3,GND*%
%TO.N,unconnected-(A1-GND-PadGND3)*%
X184710000Y-154850000D03*
D18*
%TO.P,A1,VIN,VIN*%
%TO.N,unconnected-(A1-PadVIN)*%
X187250000Y-154850000D03*
%TD*%
D20*
%TO.N,Net-(D1-R3)*%
X203500000Y-104878680D02*
X201121320Y-102500000D01*
X201121320Y-102500000D02*
X198000000Y-102500000D01*
X193000000Y-111000000D02*
X201121320Y-111000000D01*
X201121320Y-111000000D02*
X203500000Y-108621320D01*
X192000000Y-115080000D02*
X192000000Y-112000000D01*
X192000000Y-112000000D02*
X193000000Y-111000000D01*
X187300000Y-119780000D02*
X192000000Y-115080000D01*
X203500000Y-108621320D02*
X203500000Y-104878680D01*
X198000000Y-102500000D02*
X197480000Y-101980000D01*
X197480000Y-101980000D02*
X197480000Y-98279543D01*
%TO.N,/D12*%
X135200000Y-110080000D02*
X136900000Y-111780000D01*
X136900000Y-111780000D02*
X167720000Y-111780000D01*
X167720000Y-111780000D02*
X173016000Y-106484000D01*
%TO.N,Net-(D1-R4)*%
X189800000Y-119780000D02*
X194000000Y-115580000D01*
X202000000Y-101000000D02*
X200500000Y-101000000D01*
X205000000Y-109242640D02*
X205000000Y-104000000D01*
X194000000Y-113000000D02*
X201242640Y-113000000D01*
X194000000Y-115580000D02*
X194000000Y-113000000D01*
X200020000Y-100520000D02*
X200020000Y-98279543D01*
X205000000Y-104000000D02*
X202000000Y-101000000D01*
X200500000Y-101000000D02*
X200020000Y-100520000D01*
X201242640Y-113000000D02*
X205000000Y-109242640D01*
%TO.N,/D35*%
X208444963Y-147250000D02*
X238250000Y-147250000D01*
X239380000Y-124380000D02*
X238040000Y-124380000D01*
X242000000Y-143500000D02*
X242000000Y-127000000D01*
X238250000Y-147250000D02*
X242000000Y-143500000D01*
X205194963Y-144000000D02*
X208444963Y-147250000D01*
X242000000Y-127000000D02*
X239380000Y-124380000D01*
%TO.N,/D10*%
X178096000Y-109025320D02*
X178096000Y-106600000D01*
X137240000Y-117120000D02*
X170001320Y-117120000D01*
X170001320Y-117120000D02*
X178096000Y-109025320D01*
X130200000Y-110080000D02*
X137240000Y-117120000D01*
%TO.N,/D11*%
X132700000Y-110080000D02*
X138240000Y-115620000D01*
X138240000Y-115620000D02*
X169380000Y-115620000D01*
X169380000Y-115620000D02*
X175556000Y-109444000D01*
X175556000Y-109444000D02*
X175556000Y-106600000D01*
%TO.N,/A13*%
X225514963Y-144000000D02*
X215514963Y-134000000D01*
X167760000Y-148500000D02*
X163260000Y-144000000D01*
X187242640Y-134000000D02*
X172742640Y-148500000D01*
X215514963Y-134000000D02*
X187242640Y-134000000D01*
X172742640Y-148500000D02*
X167760000Y-148500000D01*
%TO.N,/D25*%
X220541117Y-103560660D02*
X232818020Y-103560660D01*
X239261314Y-111680000D02*
X238040000Y-111680000D01*
X178213097Y-103029543D02*
X186742640Y-94500000D01*
X232818020Y-103560660D02*
X233878680Y-102500000D01*
X186742640Y-94500000D02*
X211480457Y-94500000D01*
X211480457Y-94500000D02*
X215260000Y-98279543D01*
X242000000Y-108941314D02*
X239261314Y-111680000D01*
X242000000Y-104378680D02*
X242000000Y-108941314D01*
X240121320Y-102500000D02*
X242000000Y-104378680D01*
X233878680Y-102500000D02*
X240121320Y-102500000D01*
X215260000Y-98279543D02*
X220541117Y-103560660D01*
X153005037Y-98279543D02*
X157755037Y-103029543D01*
X157755037Y-103029543D02*
X178213097Y-103029543D01*
%TO.N,/D29*%
X176970457Y-100029543D02*
X185500000Y-91500000D01*
X158279543Y-98408923D02*
X159900163Y-100029543D01*
X158085037Y-98279543D02*
X158279543Y-98279543D01*
X231636040Y-100500000D02*
X232636040Y-99500000D01*
X213560457Y-91500000D02*
X220340000Y-98279543D01*
X220340000Y-98279543D02*
X222560457Y-100500000D01*
X245000000Y-103136040D02*
X245000000Y-111000000D01*
X239240000Y-116760000D02*
X238040000Y-116760000D01*
X232636040Y-99500000D02*
X241363960Y-99500000D01*
X158279543Y-98279543D02*
X158279543Y-98408923D01*
X245000000Y-111000000D02*
X239240000Y-116760000D01*
X222560457Y-100500000D02*
X231636040Y-100500000D01*
X159900163Y-100029543D02*
X176970457Y-100029543D01*
X241363960Y-99500000D02*
X245000000Y-103136040D01*
X185500000Y-91500000D02*
X213560457Y-91500000D01*
%TO.N,/A15*%
X169800000Y-145500000D02*
X171500000Y-145500000D01*
X169040000Y-144000000D02*
X169040000Y-144040000D01*
X186000000Y-131000000D02*
X217594963Y-131000000D01*
X171500000Y-145500000D02*
X186000000Y-131000000D01*
X168340000Y-144040000D02*
X169800000Y-145500000D01*
X217594963Y-131000000D02*
X230594963Y-144000000D01*
%TO.N,/D37*%
X238920000Y-126920000D02*
X238040000Y-126920000D01*
X210274963Y-144000000D02*
X212024963Y-145750000D01*
X240500000Y-142878680D02*
X240500000Y-128500000D01*
X212024963Y-145750000D02*
X237628680Y-145750000D01*
X237628680Y-145750000D02*
X240500000Y-142878680D01*
X240500000Y-128500000D02*
X238920000Y-126920000D01*
%TO.N,/GND*%
X259750000Y-92750000D02*
X259750000Y-93809245D01*
X256000000Y-97559245D02*
X256000000Y-138492640D01*
X184082800Y-151750000D02*
X242742640Y-151750000D01*
X258100000Y-153300000D02*
X258100000Y-140592640D01*
X182170000Y-153662800D02*
X184082800Y-151750000D01*
X242742640Y-151750000D02*
X256000000Y-138492640D01*
X258100000Y-140592640D02*
X256000000Y-138492640D01*
X259750000Y-93809245D02*
X256000000Y-97559245D01*
X182170000Y-154850000D02*
X182170000Y-153662800D01*
%TO.N,/A9*%
X189727920Y-140000000D02*
X175227920Y-154500000D01*
X175227920Y-154500000D02*
X163600000Y-154500000D01*
X215354963Y-144000000D02*
X211354963Y-140000000D01*
X211354963Y-140000000D02*
X189727920Y-140000000D01*
X163600000Y-154500000D02*
X153100000Y-144000000D01*
%TO.N,/A12*%
X187863960Y-135500000D02*
X173363960Y-150000000D01*
X173363960Y-150000000D02*
X166720000Y-150000000D01*
X166720000Y-150000000D02*
X160720000Y-144000000D01*
X222974963Y-144000000D02*
X214474963Y-135500000D01*
X214474963Y-135500000D02*
X187863960Y-135500000D01*
%TO.N,/D44*%
X219121320Y-128000000D02*
X228201320Y-137080000D01*
X165800000Y-119700000D02*
X174100000Y-128000000D01*
X228201320Y-137080000D02*
X235500000Y-137080000D01*
X174100000Y-128000000D02*
X219121320Y-128000000D01*
%TO.N,/A10*%
X189106600Y-138500000D02*
X174606600Y-153000000D01*
X164640000Y-153000000D02*
X155640000Y-144000000D01*
X174606600Y-153000000D02*
X164640000Y-153000000D01*
X217894963Y-144000000D02*
X212394963Y-138500000D01*
X212394963Y-138500000D02*
X189106600Y-138500000D01*
%TO.N,/D26*%
X205100000Y-98279543D02*
X221040457Y-114220000D01*
X221040457Y-114220000D02*
X235500000Y-114220000D01*
%TO.N,/A7*%
X212760000Y-157500000D02*
X210110000Y-154850000D01*
X248700000Y-154800000D02*
X246000000Y-157500000D01*
X246000000Y-157500000D02*
X212760000Y-157500000D01*
%TO.N,/D24*%
X233820000Y-111680000D02*
X235500000Y-111680000D01*
X233260000Y-112240000D02*
X233820000Y-111680000D01*
X207640000Y-98279543D02*
X221600457Y-112240000D01*
X221600457Y-112240000D02*
X233260000Y-112240000D01*
%TO.N,/D22*%
X220740457Y-108840000D02*
X235200000Y-108840000D01*
X210180000Y-98279543D02*
X220740457Y-108840000D01*
X235200000Y-108840000D02*
X235500000Y-109140000D01*
%TO.N,/D46*%
X228620000Y-139620000D02*
X235500000Y-139620000D01*
X160600000Y-119700000D02*
X170400000Y-129500000D01*
X218500000Y-129500000D02*
X228620000Y-139620000D01*
X170400000Y-129500000D02*
X218500000Y-129500000D01*
%TO.N,/D31*%
X245000000Y-145250000D02*
X245000000Y-125378680D01*
X238921320Y-119300000D02*
X238040000Y-119300000D01*
X240000000Y-150250000D02*
X245000000Y-145250000D01*
X195034963Y-144000000D02*
X201284963Y-150250000D01*
X201284963Y-150250000D02*
X240000000Y-150250000D01*
X245000000Y-125378680D02*
X238921320Y-119300000D01*
%TO.N,/D27*%
X158795037Y-101529543D02*
X177591777Y-101529543D01*
X217800000Y-98279543D02*
X221581117Y-102060660D01*
X177591777Y-101529543D02*
X186121320Y-93000000D01*
X217800000Y-98279543D02*
X212520457Y-93000000D01*
X212520457Y-93000000D02*
X192500000Y-93000000D01*
X243500000Y-103757360D02*
X243500000Y-109981314D01*
X233257360Y-101000000D02*
X240742640Y-101000000D01*
X240742640Y-101000000D02*
X243500000Y-103757360D01*
X186121320Y-93000000D02*
X192500000Y-93000000D01*
X232196700Y-102060660D02*
X233257360Y-101000000D01*
X221581117Y-102060660D02*
X232196700Y-102060660D01*
X155545037Y-98279543D02*
X158795037Y-101529543D01*
X239261314Y-114220000D02*
X238040000Y-114220000D01*
X243500000Y-109981314D02*
X239261314Y-114220000D01*
%TO.N,Net-(D1-R1)*%
X178740000Y-119740000D02*
X177500000Y-118500000D01*
X185039600Y-110460400D02*
X185039600Y-105639943D01*
X183588471Y-111911529D02*
X185039600Y-110460400D01*
X179588471Y-111911529D02*
X183588471Y-111911529D01*
X177500000Y-114000000D02*
X179588471Y-111911529D01*
X177500000Y-118500000D02*
X177500000Y-114000000D01*
X185039600Y-105639943D02*
X192400000Y-98279543D01*
X180600000Y-119740000D02*
X178740000Y-119740000D01*
%TO.N,Net-(D1-R2)*%
X194940000Y-103440000D02*
X194940000Y-98279543D01*
X189000000Y-109000000D02*
X201000000Y-109000000D01*
X201000000Y-109000000D02*
X202000000Y-108000000D01*
X202000000Y-105500000D02*
X200500000Y-104000000D01*
X202000000Y-108000000D02*
X202000000Y-105500000D01*
X200500000Y-104000000D02*
X195500000Y-104000000D01*
X185500000Y-112500000D02*
X189000000Y-109000000D01*
X195500000Y-104000000D02*
X194940000Y-103440000D01*
X183200000Y-119740000D02*
X185500000Y-117440000D01*
X185500000Y-117440000D02*
X185500000Y-112500000D01*
%TO.N,/D28*%
X221040457Y-116760000D02*
X235500000Y-116760000D01*
X202560000Y-98279543D02*
X221040457Y-116760000D01*
%TO.N,/A8*%
X190349240Y-141500000D02*
X175849240Y-156000000D01*
X175849240Y-156000000D02*
X162560000Y-156000000D01*
X212814963Y-144000000D02*
X210314963Y-141500000D01*
X162560000Y-156000000D02*
X150560000Y-144000000D01*
X210314963Y-141500000D02*
X190349240Y-141500000D01*
%TO.N,/A14*%
X186621320Y-132500000D02*
X172121320Y-147000000D01*
X168565306Y-147000000D02*
X165800000Y-144234694D01*
X166500000Y-144234694D02*
X166500000Y-144000000D01*
X172121320Y-147000000D02*
X168565306Y-147000000D01*
X228054963Y-144000000D02*
X216554963Y-132500000D01*
X228054963Y-144000000D02*
X228054963Y-144234694D01*
X216554963Y-132500000D02*
X186621320Y-132500000D01*
%TO.N,/D33*%
X239250000Y-148750000D02*
X243500000Y-144500000D01*
X204864963Y-148750000D02*
X239250000Y-148750000D01*
X243500000Y-144500000D02*
X243500000Y-126000000D01*
X200114963Y-144000000D02*
X204864963Y-148750000D01*
X239340000Y-121840000D02*
X238040000Y-121840000D01*
X243500000Y-126000000D02*
X239340000Y-121840000D01*
%TO.N,/A11*%
X173985280Y-151500000D02*
X165680000Y-151500000D01*
X188485280Y-137000000D02*
X173985280Y-151500000D01*
X165680000Y-151500000D02*
X158180000Y-144000000D01*
X220434963Y-144000000D02*
X213434963Y-137000000D01*
X213434963Y-137000000D02*
X188485280Y-137000000D01*
%TO.N,/D23*%
X150465037Y-98279543D02*
X156715037Y-104529543D01*
X240500000Y-107901314D02*
X239261314Y-109140000D01*
X187500000Y-96000000D02*
X210440457Y-96000000D01*
X212720000Y-98279543D02*
X221600457Y-107160000D01*
X239500000Y-104000000D02*
X240500000Y-105000000D01*
X156715037Y-104529543D02*
X178970457Y-104529543D01*
X240500000Y-105000000D02*
X240500000Y-107901314D01*
X221600457Y-107160000D02*
X231340000Y-107160000D01*
X239261314Y-109140000D02*
X238040000Y-109140000D01*
X210440457Y-96000000D02*
X212720000Y-98279543D01*
X234500000Y-104000000D02*
X239500000Y-104000000D01*
X231340000Y-107160000D02*
X234500000Y-104000000D01*
X178970457Y-104529543D02*
X187500000Y-96000000D01*
%TO.N,/D13*%
X137700000Y-110080000D02*
X166996000Y-110080000D01*
X166996000Y-110080000D02*
X170476000Y-106600000D01*
%TO.N,/A6*%
X256100000Y-162200000D02*
X213698686Y-162200000D01*
X213698686Y-162200000D02*
X207570000Y-156071314D01*
X207570000Y-156071314D02*
X207570000Y-154850000D01*
%TD*%
M02*
